<svg version="1.1" id="Layer_1" xmlns="http://www.w3.org/2000/svg" xmlns:xlink="http://www.w3.org/1999/xlink" viewBox="0 0 512 512" xml:space="preserve" fill="#000000"><g id="SVGRepo_bgCarrier" stroke-width="0"></g><g id="SVGRepo_tracerCarrier" stroke-linecap="round" stroke-linejoin="round"></g><g id="SVGRepo_iconCarrier"> <polygon style="fill:#5374FC;" points="403.234,454.006 256,504.396 108.765,454.006 108.765,98.124 403.234,98.124 "></polygon> <path style="opacity:0.34;fill:#373BAE;enable-background:new ;" d="M316.236,100.665v268.884l-86.999,29.775 c-39.046,13.364-81.427,13.364-120.472,0l0,0v57.223l147.234,50.391l147.234-50.391V100.665H316.236z"></path> <path style="fill:#C70024;" d="M444.597,98.124H67.401c-7.563,0-13.751-6.188-13.751-13.751v-0.976 c0-7.563,6.188-13.751,13.751-13.751h377.196c7.563,0,13.751,6.188,13.751,13.751v0.976 C458.348,91.935,452.161,98.124,444.597,98.124z"></path> <path style="opacity:0.42;fill:#56361D;enable-background:new ;" d="M458.348,83.884v0.976c0,7.563-6.188,13.751-13.751,13.751 H67.401c-7.563,0-13.751-6.188-13.751-13.751v-0.976C53.651,83.884,458.348,83.884,458.348,83.884z"></path> <polygon style="fill:#52A2E7;" points="368.499,417.971 256,456.474 143.499,417.971 143.499,146.046 368.499,146.046 "></polygon> <g> <circle style="fill:#EEBF00;" cx="255.998" cy="226.444" r="44.63"></circle> <path style="fill:#EEBF00;" d="M321.007,338.224H190.991c-8.232,0-14.968-6.735-14.968-14.968v-1.063 c0-8.233,6.735-14.968,14.968-14.968h130.016c8.233,0,14.968,6.735,14.968,14.968v1.063 C335.976,331.488,329.24,338.224,321.007,338.224z"></path> <path style="fill:#EEBF00;" d="M302.263,398.561h-92.527c-8.232,0-14.968-6.735-14.968-14.968v-1.063 c0-8.232,6.735-14.968,14.968-14.968h92.529c8.232,0,14.968,6.735,14.968,14.968v1.063 C317.232,391.825,310.496,398.561,302.263,398.561z"></path> </g> <rect x="108.766" y="98.121" style="opacity:0.34;fill:#373BAE;enable-background:new ;" width="294.464" height="27.435"></rect> <path d="M444.597,62.041h-47.698L259.093,0.658c-1.97-0.877-4.218-0.877-6.189,0L115.099,62.041H67.401 c-11.775,0-21.355,9.58-21.355,21.355v0.976c0,11.775,9.579,21.355,21.355,21.355h33.76v348.279c0,3.25,2.066,6.142,5.141,7.194 l147.234,50.391c0.798,0.274,1.63,0.41,2.463,0.41c0.832,0,1.665-0.137,2.463-0.41L405.698,461.2 c3.075-1.052,5.141-3.944,5.141-7.194V105.728h33.759c11.775,0,21.355-9.58,21.355-21.355v-0.976 C465.952,71.621,456.372,62.041,444.597,62.041z M255.999,15.927l103.525,46.113H152.475L255.999,15.927z M395.63,448.571 l-139.631,47.788L116.37,448.571V105.728h279.26V448.571z M450.744,84.373c0,3.389-2.758,6.147-6.147,6.147h-41.363H108.766H67.401 c-3.389,0-6.147-2.758-6.147-6.147v-0.976c0-3.389,2.758-6.147,6.147-6.147h377.196c3.39,0,6.147,2.758,6.147,6.147L450.744,84.373 L450.744,84.373z"></path> <path d="M141.038,425.165l112.499,38.503c0.798,0.274,1.63,0.41,2.463,0.41c0.832,0,1.665-0.137,2.463-0.41l112.5-38.503 c3.075-1.052,5.141-3.944,5.141-7.194V146.046c0-4.199-3.404-7.604-7.604-7.604H143.499c-4.2,0-7.604,3.405-7.604,7.604v271.925 C135.896,421.221,137.962,424.113,141.038,425.165z M151.103,153.65h209.792v258.887l-104.896,35.901l-104.895-35.901V153.65z"></path> <path d="M255.999,278.682c28.804,0,52.237-23.433,52.237-52.237s-23.433-52.236-52.237-52.236 c-28.803,0-52.236,23.433-52.236,52.236S227.196,278.682,255.999,278.682z M255.999,189.417c20.418,0,37.029,16.611,37.029,37.028 s-16.612,37.029-37.029,37.029s-37.028-16.611-37.028-37.029S235.582,189.417,255.999,189.417z"></path> <path d="M321.007,345.828c12.445,0,22.571-10.125,22.571-22.571v-1.063c0-12.446-10.125-22.571-22.571-22.571H190.991 c-12.446,0-22.572,10.125-22.572,22.571v1.063c0,12.446,10.125,22.571,22.572,22.571H321.007z M183.627,323.255v-1.063 c0-4.06,3.304-7.364,7.365-7.364h130.016c4.061,0,7.364,3.303,7.364,7.364v1.063c0,4.06-3.303,7.364-7.364,7.364H190.991 C186.931,330.62,183.627,327.316,183.627,323.255z"></path> <path d="M324.836,383.594v-1.063c0-12.446-10.125-22.571-22.573-22.571h-92.527c-12.446,0-22.572,10.125-22.572,22.571v1.063 c0,12.446,10.125,22.571,22.572,22.571h92.527C314.709,406.165,324.836,396.039,324.836,383.594z M202.372,383.594v-1.063 c0-4.06,3.304-7.364,7.365-7.364h92.527c4.06,0,7.365,3.303,7.365,7.364v1.063c0,4.06-3.304,7.364-7.365,7.364h-92.529 C205.675,390.958,202.372,387.653,202.372,383.594z"></path> </g></svg>