<?xml version="1.0" encoding="utf-8"?>
<!-- Generator: Adobe Illustrator 24.3.0, SVG Export Plug-In . SVG Version: 6.00 Build 0)  -->
<svg version="1.1" id="Layer_1" xmlns="http://www.w3.org/2000/svg" xmlns:xlink="http://www.w3.org/1999/xlink" x="0px" y="0px"
	 viewBox="0 0 100 100" enable-background="new 0 0 100 100" xml:space="preserve">
<g>
	<polygon fill="#217EBA" points="47.834,15.771 67.595,50 87.357,84.229 47.834,84.229 8.31,84.229 28.072,50 	"/>
	<polygon fill="#3B96D2" points="47.631,21.18 30.703,51.312 13.775,81.446 47.631,81.446 	"/>
	<path fill="#3B96D2" d="M48.767,21.282c2.664,3.906,21.801,32.962,42.923,30.031c0,0-15.878,6.299-11.077,30.03
		C80.613,81.343,50.494,66.466,48.767,21.282z"/>
	<path fill="#217EBA" d="M49.886,24.682c2.015,2.955,21.681,29.863,37.661,27.645c0,0-12.494,8.768-8.861,26.723
		C78.686,79.051,51.194,58.869,49.886,24.682z"/>
</g>
</svg>
