<svg xmlns="http://www.w3.org/2000/svg" viewBox="0 0 128 160" x="0px" y="0px"><g data-name="Layer 3"><path d="M40,50a1,1,0,0,1-1-1V45a1,1,0,0,1,2,0v4A1,1,0,0,1,40,50Z"/><path d="M40,73a1,1,0,0,1-1-1V53a1,1,0,0,1,2,0V72A1,1,0,0,1,40,73Z"/><path d="M89.5,28a5.49,5.49,0,0,0-4.24,2H85a2,2,0,0,0-2-2H79a2,2,0,0,0-2,2H51a2,2,0,0,0-2-2H45a2,2,0,0,0-2,2h-.26a5.5,5.5,0,1,0,0,7H43v64.14a2,2,0,0,0,3.12,1.65l17.68-12a2,2,0,0,1,2.32.06L81.8,102.6A2,2,0,0,0,85,101V37h.26a5.5,5.5,0,1,0,4.24-9Zm-51,9A3.5,3.5,0,1,1,42,33.5,3.5,3.5,0,0,1,38.5,37ZM73,67a1,1,0,0,1-1,1H54a1,1,0,0,1-1-1V57.41a1,1,0,0,1,1-1,1,1,0,0,1,.7.3l2.58,2.58a1,1,0,0,0,1.42,0l3.58-3.58a1,1,0,0,1,1.42,0l3.58,3.58a1,1,0,0,0,1.42,0l2.58-2.58a1,1,0,0,1,.7-.3,1,1,0,0,1,1,1Zm4-29a2,2,0,0,1-2,2H53a2,2,0,0,1-2-2V37H77Zm0-3H51V32H77Zm12.5,2A3.5,3.5,0,1,1,93,33.5,3.5,3.5,0,0,1,89.5,37Z"/></g></svg>